<svg width="67" height="66" viewBox="0 0 67 66" fill="none" xmlns="http://www.w3.org/2000/svg">
<g id="Logo (?)">
<g id="Group">
<path id="Vector" d="M32.9167 6C17.4983 6 5 18.1252 5 33.0833C5 48.0415 17.4983 60.1667 32.9167 60.1667C48.335 60.1667 60.8333 48.0415 60.8333 33.0833C60.8333 18.1252 48.335 6 32.9167 6Z" stroke="black" stroke-width="6.25" stroke-linecap="round" stroke-linejoin="round"/>
<path id="Vector_2" d="M21.75 57.9133V38.5L32.9167 19.5417L44.0833 38.5V57.9133" stroke="black" stroke-width="6.25" stroke-linecap="round" stroke-linejoin="round"/>
<path id="Vector_3" d="M21.75 38.5C21.75 38.5 24.8962 41.2083 27.3333 41.2083C29.7705 41.2083 32.9167 38.5 32.9167 38.5C32.9167 38.5 36.0629 41.2083 38.5 41.2083C40.9371 41.2083 44.0833 38.5 44.0833 38.5" stroke="black" stroke-width="6.25" stroke-linecap="round" stroke-linejoin="round"/>
</g>
</g>
</svg>
